<?xml version="1.0" encoding="UTF-8"?>
<svg id="_レイヤー_1" data-name="レイヤー_1" xmlns="http://www.w3.org/2000/svg" version="1.1" viewBox="0 0 181 43">
  <!-- Generator: Adobe Illustrator 29.1.0, SVG Export Plug-In . SVG Version: 2.1.0 Build 142)  -->
  <defs>
    <style>
      .st0 {
        fill: #edaf32;
      }

      .st1 {
        fill: #e66d11;
      }

      .st2 {
        fill: #e89112;
      }

      .st3 {
        fill: #fff;
      }

      .st4 {
        fill: #8d80a7;
      }

      .st5 {
        fill: #675e7d;
      }

      .st6 {
        fill: #65327e;
      }

      .st7 {
        fill: #f0d6a0;
      }
    </style>
  </defs>
  <path class="st2" d="M165.3,7.6c-3.2,0-8.8,2.2-8.9,8-.2,5.8,8.1,16.7,8.4,17s.6.2.6.2c0,0,.2,0,.6-.2s8.5-11.2,8.4-17c-.2-5.8-5.7-8-8.9-8"/>
  <circle class="st2" cx="165.3" cy="38" r="3.4"/>
  <circle class="st3" cx="165.3" cy="16.6" r="5.2"/>
  <path class="st1" d="M168.5,16.4c0,1.6-1.3,2.9-2.9,2.9s-2.9-1.3-2.9-2.9,1-3,2.9-2.9,2.9,1.3,2.9,2.9Z"/>
  <ellipse class="st3" cx="167.9" cy="18.2" rx="1" ry="1" transform="translate(124.5 181.4) rotate(-81.3)"/>
  <path class="st3" d="M163.4,15.9c0-.9.7-1.6,1.6-1.6s1.6.7,1.6,1.6-.8,1.5-1.7,1.5-1.5-.6-1.5-1.5Z"/>
  <path class="st4" d="M13.9,13.6l5.5-.3c1.8,0,4.1-.7,5.8-.6s2.2,1.8,1.7,3.2-2.2,1.2-3.3,1.3c-3.2.3-6.5.4-9.7.5l-.2.2v3.2c1.6-.3,3.4-.3,5.2-.2h.1c.2-2,2.2-2,3.6-1.3s.9,1.1.7,2.1c2.1.8,3.8,1.8,5,3.7,4.1,6.2.6,14.3-6.4,16.2-1.8.5-3.1,0-3.7-1.8s1.5-2.1,2.9-2.8c3.1-1.4,4.8-4.4,4-7.8-.4-1.5-1.6-3.2-3.2-3.5,0,.2,0,.3,0,.5-1.1,3.1-3.2,6.5-5.5,8.9s-1.2.9-1.3,1.2.4,1.3.5,1.7c.3,2.1-4,3.1-4.5.8-2.3,1-5,1.7-7.4.5S-.2,34,.7,30.9s4.6-7.1,8.3-8.4l.2-4.4c-1.1,0-2.3,0-3.4,0s-.4,0-.5,0c-1.3,0-3.3.2-3.6-1.5s.2-2.7,1.9-2.9,3.1.1,4.5.2,1,0,1.4,0c.3-.2,0-3.5.8-4.3s3.9-.7,4.1.8-.2,2.3-.3,3.3ZM17.7,24.8c-.5-.3-4.2,0-4.4.4v2.3s.3,4.2.3,4.2c.1.2.9-.9,1-1,1.3-1.7,2.3-3.9,3-5.9ZM9.8,35.2l-.9-8.4c-1.9,1.1-3.4,3-3.9,5.1-.7,3.1,1,5,4.1,3.6.1,0,.7-.3.8-.4Z"/>
  <path class="st4" d="M40,20.8s.1,0,0-.1c0,0-.2,0-.3,0-1,0-2.5.4-3.6.4s-2.4-.2-2.7-1.6,0-2.8,1.7-2.9l4.8-.4c0-.5,0-.9,0-1.3,0-1.2-.3-4,.3-4.9s2.9-.9,3.7-.4.7,1.9.6,2.9,0,2.3,0,3.4c.1.3.4.4.5.7.5,1.2-.3,2.1-.6,3.1.2,0,.2,0,.3-.2,1.1-.9,2-2,3.2-2.9,4.5-3.2,10.5-3.1,11.2,3.4s-.8,8.5-.9,12.6c0,.7-.1,2.8.7,3.1,1.5.6,2.1-1.4,3.3-1.6,2.1-.3,2.8,2,1.9,3.6-1.7,3-7.1,4.2-9.5,1.3-2.8-3.4,0-12.7-.2-17.2,0-1.5-.5-3.1-2.4-2.9-2.4.3-6.3,5.1-7.7,7,0,1,0,2.1,0,3.1,0,3.6.3,7.4,0,10.9-.1,1.8-1.3,2.2-3,2.1s-1.7-.6-1.7-1.2v-9.6l-2.4,3.7c-.4.4-.7,1-1.3,1.2-1.4.5-3.5-1-3-2.6,1.4-2.4,3.1-4.5,4.7-6.8s2.2-3.2,2.2-3.4c0-.9,0-1.7,0-2.6Z"/>
  <path class="st2" d="M133.5,26.4c.8-.1,1.9.3,2.4.9,1.3,1.4-.4,2.5-1,3.7-3.2,6.8,9.2,5.6,12.5,5.1s3.1-.8,4.1-.6c1.8.3,2.1,3.7.4,4.5s-4.3.9-5.7,1c-6.6.5-18.7.4-16.3-9.6.4-1.5,1.9-4.6,3.6-4.9Z"/>
  <path class="st4" d="M83,18.1c-1-1-.2-3.4.4-4.5,2.8-4.8,11.3-4.9,14,0,2,3.6,1.4,7.3-1.1,10.4-1,1.3-4,3.6-4.2,5s0,1.1-.1,1.6c-.5,2.6-4.1,2.4-4.3-.4-.5-6.4,8.4-7.6,6.7-13.6-1-3.7-6-4.4-7.7-.9s-.4,2.6-1.9,2.9-1.4-.2-1.9-.6Z"/>
  <path class="st2" d="M106,26.5c.9-.2,2.2.2,2.8.9,1,1.3-.5,2.3-1.1,3.4-3.5,7,9,5.7,12.5,5.2,1-.2,3-.7,3.9-.6,1.7.3,2.1,3.1.9,4.2s-4.2,1.1-5.4,1.2c-4.5.4-13.2.8-16.2-3.4s-1.5-6.2.2-8.8c.4-.6,1.6-2,2.2-2.1Z"/>
  <path class="st4" d="M72.6,10c8.3-.3,11,8.7,5.9,14.5-1.1,1.2-3.4,2.9-3.8,4.4s.1,2.2-.8,3.1-3,.6-3.5-.7,0-3.4.7-4.6c1.9-3.5,7.1-5,5.8-9.9s-6.2-4.3-7.8-.7-.5,2.9-2.3,2.7-2-1-1.9-2.3c.3-3.9,3.9-6.3,7.6-6.4Z"/>
  <path class="st2" d="M144.3,16.6c-1.4.1-2.8,0-4.2,0-2.1,0-4.3.2-6.4.2s-2.4-.4-2.6-1.7c-.2-1.5.2-2.7,1.9-2.9s4.4,0,6.4,0,3.7,0,5.5,0,4.6-.4,5.9.5c1.3,1,1.1,3,0,4.1-1.9,1-4.3,4-6.2,4.8s-3.4-.6-3.1-2.3,2.2-1.9,2.9-2.7Z"/>
  <path class="st2" d="M123.5,12.9c.8.8.9,2.5.2,3.4s-4.3,3.6-5.5,4.5-1.4,1.2-2.6.9-2.1-1.5-1.6-2.7c.4-.9,1.9-1.5,2.5-2.1s.2-.1.1-.3c-1.4.2-2.9,0-4.4,0-2.1,0-5.1.4-7.1,0-2.1-.3-2.2-3.8-.4-4.3s5.5-.1,7.4-.1,4.1,0,6.1,0,2.7-.2,4,.1.9.3,1.1.6Z"/>
  <path class="st4" d="M72.1,34.9c4.9-.7,5.1,7,0,6.4s-3.6-5.9,0-6.4Z"/>
  <path class="st4" d="M89.7,34.9c4.9-.5,4.8,7.1-.3,6.4s-3.5-6,.3-6.4Z"/>
  <path class="st5" d="M92.8,16.4c-.1.3-.9.3-.8.7,0,.2.3.4.4.6s-.1.4.3.5,1-1,1.1,0c.4,2.4-3,3.7-4.2,1.6-1.2-2.1,1.1-4.5,3.2-3.3Z"/>
  <path class="st0" d="M174,8.5s.6-2.4,3.3-3.5c-2.6-1.1-3.3-3.5-3.3-3.5,0,0-.6,2.4-3.3,3.5,2.6,1.1,3.3,3.5,3.3,3.5Z"/>
  <path class="st7" d="M178.3,11.8s.4-1.3,1.8-1.9c-1.4-.6-1.8-1.9-1.8-1.9,0,0-.4,1.3-1.8,1.9,1.4.6,1.8,1.9,1.8,1.9Z"/>
  <circle class="st6" cx="91.5" cy="18.4" r="2.3"/>
  <circle class="st3" cx="92.5" cy="17.3" r=".9"/>
  <circle class="st6" cx="74.1" cy="18.4" r="2.3"/>
  <circle class="st3" cx="74.8" cy="17" r=".9"/>
</svg>