<?xml version="1.0" encoding="UTF-8"?>
<svg id="_レイヤー_1" data-name="レイヤー_1" xmlns="http://www.w3.org/2000/svg" version="1.1" viewBox="0 0 122 32">
  <!-- Generator: Adobe Illustrator 29.1.0, SVG Export Plug-In . SVG Version: 2.1.0 Build 142)  -->
  <defs>
    <style>
      .st0 {
        fill: #a596bb;
      }

      .st1 {
        fill: #9786b6;
      }

      .st2 {
        fill: #9989b6;
      }

      .st3 {
        fill: #9583b3;
      }

      .st4 {
        fill: #998ab5;
      }

      .st5 {
        fill: #f29e3d;
      }

      .st6 {
        fill: #9b8db7;
      }

      .st7 {
        fill: #9b8bb5;
      }

      .st8 {
        fill: #9889b6;
      }

      .st9 {
        fill: #6d6284;
      }

      .st10 {
        fill: #9888b5;
      }

      .st11 {
        fill: #9989b4;
      }

      .st12 {
        fill: #9988b7;
      }
    </style>
  </defs>
  <path class="st11" d="M26.24,6.91c.21-.69,2.49-.85,2.9-.2.63,1-.11,2.32-.04,3.32s1.07,1.8.02,3c.29.24,2.02-1.66,2.47-1.97.58-.4,1.4-.9,2.08-1.04,8.16-1.67,4.28,9.06,4.63,13.42,1.12,1.96,2.38-2.18,3.78-.17,1.82,2.62-4.05,5.52-6.1,2.98-1.91-2.38.08-9.05-.39-12.35-.29-2.06-2.62-.59-3.58.22-.43.37-2.66,2.86-2.77,3.23-.6,1.96.11,6.87-.1,9.27-.22,2.62-3.13,1.5-3.13.71v-6.13c-.77.61-1.14,1.98-1.82,2.62-1.06,1-2.69.18-2.75-1.08-.04-.83,3.83-5.46,4.44-6.6l.13-2.15h-3.48c-.51,0-1.67-2.51.5-2.87.96-.16,2.23-.13,3.23-.26.19-1.04-.26-3.08,0-3.96Z"/>
  <path class="st12" d="M110.27,5.17c4.24-.71,7.92,2.13,7.49,6.52-.21,2.17-3.44,7.78-4.92,9.5-.58.68-.95,1.4-1.79.62-1.16-1.08-4.28-6.55-4.85-8.13-1.2-3.39.23-7.87,4.07-8.52Z"/>
  <path class="st4" d="M90.56,17.65c.73-.11,1.88.55,1.94,1.32.08.92-1.99,2.04-1.21,3.86.84,1.95,5.11,1.61,6.92,1.51,1.5-.08,4.93-1.44,5.35.65.46,2.29-3.01,2.35-4.65,2.46-3.73.26-11.32.35-11.15-5.13.04-1.24,1.44-4.47,2.8-4.68Z"/>
  <path class="st10" d="M72.28,17.66c.61-.07,1.71.61,1.78,1.27.13,1.25-3.04,3.01-.48,4.79,1.25.87,4.78.71,6.37.62,1.48-.08,4.7-1.41,5.11.65.46,2.29-3.01,2.35-4.65,2.46-4.23.29-11.75.3-10.91-5.86.15-1.11,1.56-3.79,2.77-3.92Z"/>
  <path class="st7" d="M53.63,8.95c.47.63.88,1.86.96,2.64.47,4.72-2.18,4.33-3.81,7.12-.73,1.25-.12,3.75-2.52,2.93-1.82-.63.19-4.28,1.04-5.25.73-.83,2.05-1.55,2.52-2.64,1.04-2.4-.81-4.92-3.49-4.21-1.78.47-1.33,2.15-2.16,2.88-1.4,1.23-2.45-.52-2.16-2.03.73-3.74,7.31-4.49,9.61-1.44Z"/>
  <path class="st2" d="M97.36,11.59c.68-.81-1.52-.24-1.79-.23-1.39.05-4.52.2-5.72-.06-1.61-.36-1.39-2.77.44-3.06,3.21-.5,7.64.3,10.99.04,1.12.24,1.41,1.65,1.01,2.59-.22.52-4.49,3.81-5.03,3.82-1.19.04-2.06-1.29-1.34-2.27.29-.4,1.38-.74,1.46-.83Z"/>
  <path class="st6" d="M79.1,11.12c-2.2.03-5.45.63-7.56.23-1.49-.28-1.76-2.87.47-3.12s7.72-.22,10.11,0c1.13.1,2.23.7,1.99,2-.17.92-4.6,4.61-5.56,4.46-.57-.09-1.45-.89-1.39-1.51.08-.86,1.58-1.31,1.93-2.05Z"/>
  <path class="st8" d="M111.23,23.42c3.16-.7,3.76,4.3.65,4.51-2.69.18-3.19-3.95-.65-4.51Z"/>
  <path class="st1" d="M120.18,3.43c-1.54-.05-1.75,1.34-2.64,2.16-.17-1.15-1.18-1.86-2.16-2.28,1.17-.6,1.99-1.17,2.28-2.53.12,0,.53,1.25.84,1.57.55.57,1.32.42,1.69,1.07Z"/>
  <path class="st9" d="M50.51,10.88c.08.06-.75,1.7.6,1.45.23-.04-.05-.6.36-.49.31,1.57-.8,2.7-2.34,1.98-1.69-.79-.32-3.32,1.38-2.94Z"/>
  <path class="st0" d="M121.86,6.55l-1.32,1.43-1.32-1.32c.74-.32,1.16-.39,1.2-1.32.54.32.6,1.19,1.44,1.2Z"/>
  <path class="st3" d="M48.77,23.41c2.3-.38,3.48,2.89,1.35,4.01-2.94,1.54-4.37-3.51-1.35-4.01Z"/>
  <path class="st7" d="M65.43,8.95c.47.63.88,1.86.96,2.64.47,4.72-2.18,4.33-3.81,7.12-.73,1.25-.12,3.75-2.52,2.93-1.82-.63.19-4.28,1.04-5.25.73-.83,2.05-1.55,2.52-2.64,1.04-2.4-.81-4.92-3.49-4.21-1.78.47-1.33,2.15-2.16,2.88-1.4,1.23-2.45-.52-2.16-2.03.73-3.74,7.31-4.49,9.61-1.44Z"/>
  <path class="st9" d="M62.3,10.88c.08.06-.75,1.7.6,1.45.23-.04-.05-.6.36-.49.31,1.57-.8,2.7-2.34,1.98-1.69-.79-.32-3.32,1.38-2.94Z"/>
  <path class="st3" d="M60.56,23.41c2.3-.38,3.48,2.89,1.35,4.01-2.94,1.54-4.37-3.51-1.35-4.01Z"/>
  <path class="st10" d="M8.7,9.19c1.87.55,6.72-.95,8.11-.3.86.4.82,2.26-.13,2.64-.77.32-3.27.46-4.27.54-2.16.17-4.56-1-3.96,2.17.92-.12,2.15.17,3.01,0,.74-.14.68-1.35,2.14-1.2s1.09,1.26,1.58,1.8c.21.23,1.23.63,1.66.98,3.6,2.95,3.35,8.38-.38,11.11-1.29.94-4.53,2.53-4.88-.1-.23-1.71.92-1.28,2.01-1.81,2.37-1.15,3.3-3.51,2.19-5.98-.2-.46-1.43-2.02-1.86-1.14-.75,1.58-1.3,3.14-2.39,4.58-.43.56-1.85,1.73-2,2.08-.17.38,1.08,1.98-.59,2.54-1.53.51-1.7-.6-2.29-.61-.45,0-1.77.72-2.65.72-1.1,0-2.73-.75-3.35-1.69-1.8-2.74-.32-6.82,2.05-8.74.66-.53,2.75-1.37,2.87-1.94.14-.72-.11-1.76,0-2.53-1.58,0-6.04.36-4.69-2.4.45-.93,3.9-.29,4.93-.48-.07-1.6-.03-3.94,2.17-3.26,1.78.55.52,2.84.71,3.02ZM5.46,18.09c-1.45,1.09-3.4,3.82-2.26,5.62.55.87,2.47.67,2.82.11.31-.5-.53-4.81-.56-5.73ZM8.47,16.89l.23,4.31c.8-.32,2.77-4.19,2.4-4.56l-2.63.25Z"/>
  <path class="st5" d="M110.74,7.8c2.39-.54,4.31.76,4.4,3.21.16,4.38-7.09,4.61-6.75-.26.08-1.11,1.28-2.7,2.35-2.94Z"/>
</svg>