<?xml version="1.0" encoding="UTF-8"?>
<svg id="_レイヤー_1" data-name="レイヤー_1" xmlns="http://www.w3.org/2000/svg" version="1.1" viewBox="0 0 24 24">
  <!-- Generator: Adobe Illustrator 29.1.0, SVG Export Plug-In . SVG Version: 2.1.0 Build 142)  -->
  <defs>
    <style>
      .st0 {
        fill: #4b4b4b;
      }
    </style>
  </defs>
  <path class="st0" d="M7.76,21.64s.04-.04.09-.09l9.13-9.13s.09-.09.09-.09l.09-.09,4.84-4.84s0,0,0,0l-5.4-5.4s0,0,0,0l-4.84,4.84-.09.09-.09.09L2.36,16.24s0,0,0,0L0,24s0,0,0,0l7.64-2.33c.06-.02.12-.04.12-.04ZM1.72,22.28l1.18-3.87s0,0,0,0l2.7,2.7s0,0,0,0l-3.87,1.18s0,0,0,0Z"/>
  <path class="st0" d="M23.55,4.92c.6-.6.6-1.58,0-2.18l-2.24-2.24c-.6-.6-1.58-.6-2.18,0l-1.12,1.12s0,0,0,0l4.42,4.42s0,0,0,0l1.12-1.12Z"/>
</svg>